<?xml version="1.0" standalone="no"?><!DOCTYPE svg PUBLIC "-//W3C//DTD SVG 1.1//EN" "http://www.w3.org/Graphics/SVG/1.1/DTD/svg11.dtd"><svg t="1622424708394" class="icon" viewBox="0 0 1024 1024" version="1.1" xmlns="http://www.w3.org/2000/svg" p-id="884" xmlns:xlink="http://www.w3.org/1999/xlink" width="200" height="200"><defs><style type="text/css"></style></defs><path d="M755.46624 409.6a17.61792 17.61792 0 0 1 17.57184 15.86176l0.08192 1.6896v310.75328c0 39.6032-38.74304 69.77536-85.2992 71.0144l-2.97472 0.04096h-22.0672c-9.7536 0-17.65888-7.8592-17.65888-17.55648a17.59744 17.59744 0 0 1 15.95392-17.46944l1.69984-0.08192h22.0672c29.19936 0 51.5328-16.2304 52.89984-34.2016l0.06656-1.7408V427.15136c0-9.69728 7.90528-17.55648 17.65888-17.55648zM361.5488 773.12c9.5744 0 17.3312 8.02304 17.3312 17.92 0 9.3184-6.87104 16.96768-15.66208 17.83808l-27.00288 0.08192c-45.312 0-83.70688-29.34784-85.28384-68.53632l-0.0512-2.51904V422.0416C250.88 412.3392 258.51904 404.48 267.94496 404.48c8.87296 0 16.16384 6.9632 16.98816 15.86176l0.08192 1.6896v315.87328c0 18.40128 21.46816 35.47648 50.01216 35.93728l26.5216-0.72192z" fill="#212228" p-id="885"></path><path d="M464.11776 192.80896c24.33536-24.27904 63.37024-24.95488 88.5248-2.0224l2.11968 2.0224L829.44 466.8672a17.408 17.408 0 0 1 0 24.66304 17.5104 17.5104 0 0 1-23.39328 1.19808l-1.32608-1.19808-274.68288-274.05824a29.184 29.184 0 0 0-39.67488-1.41312l-1.52064 1.41312-274.68288 274.05824a17.5104 17.5104 0 0 1-24.71936 0 17.41312 17.41312 0 0 1-1.19808-23.33696l1.19808-1.32608 274.67776-274.05824z" fill="#212228" p-id="886"></path><path d="M528.9984 563.2c46.40256 0 83.90656 37.87776 85.35552 84.84864l0.04608 2.83136v140.8c0 9.54368-7.7824 17.28-17.38752 17.28a17.35168 17.35168 0 0 1-17.3056-15.616l-0.08192-1.664v-140.8c0-28.65152-21.54496-51.7632-48.25088-53.06368l-2.37056-0.05632h-34.00704c-26.99776 0-49.31072 22.2976-50.56512 50.60608l-0.0512 2.51392v140.8c0 9.54368-7.78752 17.28-17.39264 17.28a17.35168 17.35168 0 0 1-17.3056-15.616l-0.08192-1.664v-140.8c0-47.32416 36.59264-86.12864 82.62656-87.63392l2.76992-0.04608h34.00704z" fill="#2c2c2c" p-id="887" data-spm-anchor-id="a313x.7781069.0.i0" class="selected"></path></svg>