<?xml version="1.0" standalone="no"?><!DOCTYPE svg PUBLIC "-//W3C//DTD SVG 1.1//EN" "http://www.w3.org/Graphics/SVG/1.1/DTD/svg11.dtd"><svg t="1622393431141" class="icon" viewBox="0 0 1024 1024" version="1.1" xmlns="http://www.w3.org/2000/svg" p-id="4840" data-spm-anchor-id="a313x.7781069.0.i6" xmlns:xlink="http://www.w3.org/1999/xlink" width="200" height="200"><defs><style type="text/css"></style></defs><path d="M662.6 816.5l-48.5-35.3c20.7-28.5 29.1-63.5 23.6-98.3s-24.3-65.5-52.8-86.2l35.3-48.5c41.5 30.2 68.8 74.7 76.8 125.4s-4.2 101.4-34.4 142.9z" fill="#2c2c2c" p-id="4841" data-spm-anchor-id="a313x.7781069.0.i7" class="selected"></path><path d="M915 931.4l-59.8-5.3c7.2-81.1-7.7-155.4-42.9-214.9-32.8-55.4-82.3-95.6-143.9-117-39.2 31.6-113.3 45.6-148.6 45.6-24.6 0-58.3-6-87.9-15.7-26.9-8.8-47.8-19.4-62.5-31.8-60.2 20.3-107.5 59.1-140.8 115.6-34.4 58.5-52.6 134.9-52.6 220.9h-60c0-96.7 21-183.6 60.8-251.2 21.5-36.5 48.3-67.4 79.8-92 33.1-25.8 71.4-44.7 113.9-56.2 12.5-3.4 25.8 1.7 32.9 12.5 3.1 4.7 16.5 15.3 47 25.3 23.7 7.7 50.9 12.7 69.3 12.7 18.2 0 45.1-4.8 68.6-12.3 30.4-9.6 43.7-19.8 46.8-24.4 7.3-10.7 20.6-15.5 33-11.9 84.5 24 152.2 75.7 195.8 149.5 41.8 70.3 59.4 157 51.1 250.6zM516.2 495.7c-52.1 0-100.8-22.9-137.2-64.5-35.4-40.5-54.9-94-54.9-150.7s19.5-110.3 54.9-150.7c36.4-41.6 85.1-64.5 137.2-64.5S617 88.1 653.4 129.7c35.4 40.5 54.9 94 54.9 150.7s-19.5 110.3-54.9 150.7c-36.4 41.7-85.1 64.6-137.2 64.6z m0-370.5c-72.8 0-132.1 69.6-132.1 155.2s59.3 155.2 132.1 155.2S648.3 366 648.3 280.4 589 125.2 516.2 125.2z" fill="#333333" p-id="4842"></path></svg>