<?xml version="1.0" standalone="no"?><!DOCTYPE svg PUBLIC "-//W3C//DTD SVG 1.1//EN" "http://www.w3.org/Graphics/SVG/1.1/DTD/svg11.dtd"><svg t="1623030172182" class="icon" viewBox="0 0 1024 1024" version="1.1" xmlns="http://www.w3.org/2000/svg" p-id="14561" xmlns:xlink="http://www.w3.org/1999/xlink" width="400" height="400"><defs><style type="text/css"></style></defs><path d="M859.428571 171.885714a65.828571 65.828571 0 0 1 65.828572 65.828572v548.571428a65.828571 65.828571 0 0 1-65.828572 65.828572h-694.857142a65.828571 65.828571 0 0 1-65.828572-65.828572v-548.571428a65.828571 65.828571 0 0 1 65.828572-65.828572z m7.314286 90.550857l-336.347428 272.310858a29.257143 29.257143 0 0 1-34.596572 1.609142l-2.194286-1.609142L157.257143 262.473143V786.285714a7.314286 7.314286 0 0 0 5.376 7.058286l1.938286 0.256h694.857142a7.314286 7.314286 0 0 0 7.314286-7.314286V262.436571zM813.312 230.4H210.651429L512 474.331429l301.312-243.931429z" p-id="14562"></path></svg>