<?xml version="1.0" standalone="no"?><!DOCTYPE svg PUBLIC "-//W3C//DTD SVG 1.1//EN" "http://www.w3.org/Graphics/SVG/1.1/DTD/svg11.dtd"><svg t="1623029747804" class="icon" viewBox="0 0 1024 1024" version="1.1" xmlns="http://www.w3.org/2000/svg" p-id="12091" xmlns:xlink="http://www.w3.org/1999/xlink" width="400" height="400"><defs><style type="text/css"></style></defs><path d="M384 725.333333h-42.666667V426.666667h42.666667v298.666666z m149.333333 0H682.666667v-42.666666h-128v-85.333334h106.666666c12.8 0 21.333333-8.533333 21.333334-21.333333v-128c0-12.8-8.533333-21.333333-21.333334-21.333333H512v42.666666h128v85.333334h-106.666667c-12.8 0-21.333333 8.533333-21.333333 21.333333v128c0 12.8 8.533333 21.333333 21.333333 21.333333zM896 298.666667v512c0 46.933333-38.4 85.333333-85.333333 85.333333H213.333333c-46.933333 0-85.333333-38.4-85.333333-85.333333V298.666667c0-46.933333 38.4-85.333333 85.333333-85.333334h85.333334V149.333333c0-12.8 8.533333-21.333333 21.333333-21.333333s21.333333 8.533333 21.333333 21.333333V213.333333h341.333334V149.333333c0-12.8 8.533333-21.333333 21.333333-21.333333s21.333333 8.533333 21.333333 21.333333V213.333333h85.333334c46.933333 0 85.333333 38.4 85.333333 85.333334z m-42.666667 42.666666H170.666667v469.333334c0 25.6 17.066667 42.666667 42.666666 42.666666h597.333334c25.6 0 42.666667-17.066667 42.666666-42.666666V341.333333z" fill="" p-id="12092"></path></svg>